<mxfile host="Electron" modified="2023-07-08T11:39:20.026Z" agent="Mozilla/5.0 (X11; Linux x86_64) AppleWebKit/537.36 (KHTML, like Gecko) draw.io/21.6.1 Chrome/112.0.5615.204 Electron/24.6.1 Safari/537.36" etag="tbqLYItTbXRSpgG3Y_LN" version="21.6.1" type="device">
  <diagram name="Page-1" id="6fYVoDXcOzzUegBSnwxq">
    <mxGraphModel dx="819" dy="482" grid="1" gridSize="10" guides="1" tooltips="1" connect="1" arrows="1" fold="1" page="1" pageScale="1" pageWidth="850" pageHeight="1100" math="0" shadow="0">
      <root>
        <mxCell id="0" />
        <mxCell id="1" parent="0" />
        <mxCell id="NtnkKfjpCND8VINaP71_-1" value="appointment" style="swimlane;fontStyle=0;childLayout=stackLayout;horizontal=1;startSize=26;fillColor=none;horizontalStack=0;resizeParent=1;resizeParentMax=0;resizeLast=0;collapsible=1;marginBottom=0;whiteSpace=wrap;html=1;" parent="1" vertex="1">
          <mxGeometry x="175" y="170" width="140" height="78" as="geometry" />
        </mxCell>
        <mxCell id="NtnkKfjpCND8VINaP71_-2" value="get&amp;nbsp; /apointment" style="text;strokeColor=none;fillColor=none;align=left;verticalAlign=top;spacingLeft=4;spacingRight=4;overflow=hidden;rotatable=0;points=[[0,0.5],[1,0.5]];portConstraint=eastwest;whiteSpace=wrap;html=1;" parent="NtnkKfjpCND8VINaP71_-1" vertex="1">
          <mxGeometry y="26" width="140" height="26" as="geometry" />
        </mxCell>
        <mxCell id="NtnkKfjpCND8VINaP71_-3" value="post /apointment" style="text;strokeColor=none;fillColor=none;align=left;verticalAlign=top;spacingLeft=4;spacingRight=4;overflow=hidden;rotatable=0;points=[[0,0.5],[1,0.5]];portConstraint=eastwest;whiteSpace=wrap;html=1;" parent="NtnkKfjpCND8VINaP71_-1" vertex="1">
          <mxGeometry y="52" width="140" height="26" as="geometry" />
        </mxCell>
        <mxCell id="NtnkKfjpCND8VINaP71_-5" value="notify" style="swimlane;fontStyle=0;childLayout=stackLayout;horizontal=1;startSize=26;horizontalStack=0;resizeParent=1;resizeParentMax=0;resizeLast=0;collapsible=1;marginBottom=0;whiteSpace=wrap;html=1;fillColor=none;" parent="1" vertex="1">
          <mxGeometry x="150" y="70" width="190" height="52" as="geometry" />
        </mxCell>
        <mxCell id="NtnkKfjpCND8VINaP71_-6" value="post /deferredNotification" style="text;strokeColor=none;fillColor=none;align=left;verticalAlign=top;spacingLeft=4;spacingRight=4;overflow=hidden;rotatable=0;points=[[0,0.5],[1,0.5]];portConstraint=eastwest;whiteSpace=wrap;html=1;" parent="NtnkKfjpCND8VINaP71_-5" vertex="1">
          <mxGeometry y="26" width="190" height="26" as="geometry" />
        </mxCell>
        <mxCell id="NtnkKfjpCND8VINaP71_-19" style="rounded=0;orthogonalLoop=1;jettySize=auto;html=1;edgeStyle=orthogonalEdgeStyle;exitX=0.5;exitY=0;exitDx=0;exitDy=0;" parent="1" source="NtnkKfjpCND8VINaP71_-1" target="NtnkKfjpCND8VINaP71_-16" edge="1">
          <mxGeometry relative="1" as="geometry">
            <mxPoint x="220" y="251.9999999999999" as="sourcePoint" />
          </mxGeometry>
        </mxCell>
        <mxCell id="NtnkKfjpCND8VINaP71_-15" value="Doctors" style="swimlane;fontStyle=0;childLayout=stackLayout;horizontal=1;startSize=26;fillColor=none;horizontalStack=0;resizeParent=1;resizeParentMax=0;resizeLast=0;collapsible=1;marginBottom=0;whiteSpace=wrap;html=1;" parent="1" vertex="1">
          <mxGeometry x="380" y="183" width="140" height="52" as="geometry" />
        </mxCell>
        <mxCell id="NtnkKfjpCND8VINaP71_-16" value="get /doctors/:id" style="text;strokeColor=none;fillColor=none;align=left;verticalAlign=top;spacingLeft=4;spacingRight=4;overflow=hidden;rotatable=0;points=[[0,0.5],[1,0.5]];portConstraint=eastwest;whiteSpace=wrap;html=1;" parent="NtnkKfjpCND8VINaP71_-15" vertex="1">
          <mxGeometry y="26" width="140" height="26" as="geometry" />
        </mxCell>
        <mxCell id="NtnkKfjpCND8VINaP71_-29" value="Users" style="swimlane;fontStyle=0;childLayout=stackLayout;horizontal=1;startSize=26;fillColor=none;horizontalStack=0;resizeParent=1;resizeParentMax=0;resizeLast=0;collapsible=1;marginBottom=0;whiteSpace=wrap;html=1;" parent="1" vertex="1">
          <mxGeometry x="380" y="248" width="140" height="52" as="geometry" />
        </mxCell>
        <mxCell id="NtnkKfjpCND8VINaP71_-30" value="get /users" style="text;strokeColor=none;fillColor=none;align=left;verticalAlign=top;spacingLeft=4;spacingRight=4;overflow=hidden;rotatable=0;points=[[0,0.5],[1,0.5]];portConstraint=eastwest;whiteSpace=wrap;html=1;" parent="NtnkKfjpCND8VINaP71_-29" vertex="1">
          <mxGeometry y="26" width="140" height="26" as="geometry" />
        </mxCell>
        <mxCell id="NtnkKfjpCND8VINaP71_-13" style="edgeStyle=orthogonalEdgeStyle;rounded=0;orthogonalLoop=1;jettySize=auto;html=1;" parent="1" target="NtnkKfjpCND8VINaP71_-5" edge="1">
          <mxGeometry relative="1" as="geometry">
            <mxPoint x="245" y="170" as="sourcePoint" />
            <mxPoint x="120" y="235" as="targetPoint" />
          </mxGeometry>
        </mxCell>
        <mxCell id="weQGU9FoBs4hJvrQAZIo-8" value="appointment" style="shape=umlLifeline;perimeter=lifelinePerimeter;whiteSpace=wrap;html=1;container=1;dropTarget=0;collapsible=0;recursiveResize=0;outlineConnect=0;portConstraint=eastwest;newEdgeStyle={&quot;edgeStyle&quot;:&quot;elbowEdgeStyle&quot;,&quot;elbow&quot;:&quot;vertical&quot;,&quot;curved&quot;:0,&quot;rounded&quot;:0};fillColor=none;" parent="1" vertex="1">
          <mxGeometry x="200" y="370" width="100" height="390" as="geometry" />
        </mxCell>
        <mxCell id="weQGU9FoBs4hJvrQAZIo-10" value="" style="html=1;points=[];perimeter=orthogonalPerimeter;outlineConnect=0;targetShapes=umlLifeline;portConstraint=eastwest;newEdgeStyle={&quot;edgeStyle&quot;:&quot;elbowEdgeStyle&quot;,&quot;elbow&quot;:&quot;vertical&quot;,&quot;curved&quot;:0,&quot;rounded&quot;:0};" parent="weQGU9FoBs4hJvrQAZIo-8" vertex="1">
          <mxGeometry x="45" y="100" width="10" height="260" as="geometry" />
        </mxCell>
        <mxCell id="weQGU9FoBs4hJvrQAZIo-9" value="" style="shape=umlLifeline;perimeter=lifelinePerimeter;whiteSpace=wrap;html=1;container=1;dropTarget=0;collapsible=0;recursiveResize=0;outlineConnect=0;portConstraint=eastwest;newEdgeStyle={&quot;edgeStyle&quot;:&quot;elbowEdgeStyle&quot;,&quot;elbow&quot;:&quot;vertical&quot;,&quot;curved&quot;:0,&quot;rounded&quot;:0};participant=umlActor;" parent="1" vertex="1">
          <mxGeometry x="60" y="370" width="20" height="390" as="geometry" />
        </mxCell>
        <mxCell id="weQGU9FoBs4hJvrQAZIo-11" value="post /apointment" style="html=1;verticalAlign=bottom;startArrow=oval;endArrow=block;startSize=8;edgeStyle=elbowEdgeStyle;elbow=vertical;curved=0;rounded=0;" parent="1" edge="1">
          <mxGeometry relative="1" as="geometry">
            <mxPoint x="69.5" y="490" as="sourcePoint" />
            <mxPoint x="245" y="490" as="targetPoint" />
          </mxGeometry>
        </mxCell>
        <mxCell id="weQGU9FoBs4hJvrQAZIo-12" value="Doctors" style="shape=umlLifeline;perimeter=lifelinePerimeter;whiteSpace=wrap;html=1;container=1;dropTarget=0;collapsible=0;recursiveResize=0;outlineConnect=0;portConstraint=eastwest;newEdgeStyle={&quot;edgeStyle&quot;:&quot;elbowEdgeStyle&quot;,&quot;elbow&quot;:&quot;vertical&quot;,&quot;curved&quot;:0,&quot;rounded&quot;:0};fillColor=none;" parent="1" vertex="1">
          <mxGeometry x="350" y="370" width="100" height="390" as="geometry" />
        </mxCell>
        <mxCell id="weQGU9FoBs4hJvrQAZIo-15" value="" style="html=1;points=[];perimeter=orthogonalPerimeter;outlineConnect=0;targetShapes=umlLifeline;portConstraint=eastwest;newEdgeStyle={&quot;edgeStyle&quot;:&quot;elbowEdgeStyle&quot;,&quot;elbow&quot;:&quot;vertical&quot;,&quot;curved&quot;:0,&quot;rounded&quot;:0};" parent="weQGU9FoBs4hJvrQAZIo-12" vertex="1">
          <mxGeometry x="45" y="170" width="10" height="50" as="geometry" />
        </mxCell>
        <mxCell id="weQGU9FoBs4hJvrQAZIo-16" value="get doctor" style="html=1;verticalAlign=bottom;endArrow=block;edgeStyle=elbowEdgeStyle;elbow=vertical;curved=0;rounded=0;" parent="1" source="weQGU9FoBs4hJvrQAZIo-10" target="weQGU9FoBs4hJvrQAZIo-15" edge="1">
          <mxGeometry relative="1" as="geometry">
            <mxPoint x="450" y="530" as="sourcePoint" />
            <Array as="points">
              <mxPoint x="340" y="550" />
            </Array>
          </mxGeometry>
        </mxCell>
        <mxCell id="weQGU9FoBs4hJvrQAZIo-17" value="doctor" style="html=1;verticalAlign=bottom;endArrow=open;dashed=1;endSize=8;edgeStyle=elbowEdgeStyle;elbow=vertical;curved=0;rounded=0;" parent="1" edge="1">
          <mxGeometry relative="1" as="geometry">
            <mxPoint x="255" y="580" as="targetPoint" />
            <mxPoint x="395" y="580" as="sourcePoint" />
          </mxGeometry>
        </mxCell>
        <mxCell id="weQGU9FoBs4hJvrQAZIo-18" value="Notify" style="shape=umlLifeline;perimeter=lifelinePerimeter;whiteSpace=wrap;html=1;container=1;dropTarget=0;collapsible=0;recursiveResize=0;outlineConnect=0;portConstraint=eastwest;newEdgeStyle={&quot;edgeStyle&quot;:&quot;elbowEdgeStyle&quot;,&quot;elbow&quot;:&quot;vertical&quot;,&quot;curved&quot;:0,&quot;rounded&quot;:0};fillColor=none;" parent="1" vertex="1">
          <mxGeometry x="490" y="370" width="100" height="390" as="geometry" />
        </mxCell>
        <mxCell id="weQGU9FoBs4hJvrQAZIo-19" value="" style="html=1;points=[];perimeter=orthogonalPerimeter;outlineConnect=0;targetShapes=umlLifeline;portConstraint=eastwest;newEdgeStyle={&quot;edgeStyle&quot;:&quot;elbowEdgeStyle&quot;,&quot;elbow&quot;:&quot;vertical&quot;,&quot;curved&quot;:0,&quot;rounded&quot;:0};" parent="weQGU9FoBs4hJvrQAZIo-18" vertex="1">
          <mxGeometry x="45" y="250" width="10" height="25" as="geometry" />
        </mxCell>
        <mxCell id="7EY8_wTJ_FT-RABBMJMo-9" value="" style="html=1;points=[];perimeter=orthogonalPerimeter;outlineConnect=0;targetShapes=umlLifeline;portConstraint=eastwest;newEdgeStyle={&quot;edgeStyle&quot;:&quot;elbowEdgeStyle&quot;,&quot;elbow&quot;:&quot;vertical&quot;,&quot;curved&quot;:0,&quot;rounded&quot;:0};" vertex="1" parent="weQGU9FoBs4hJvrQAZIo-18">
          <mxGeometry x="45" y="290" width="10" height="25" as="geometry" />
        </mxCell>
        <mxCell id="7EY8_wTJ_FT-RABBMJMo-3" value="create notification&lt;br&gt;a day before" style="html=1;verticalAlign=bottom;endArrow=block;edgeStyle=elbowEdgeStyle;elbow=vertical;curved=0;rounded=0;" edge="1" parent="1" target="weQGU9FoBs4hJvrQAZIo-19">
          <mxGeometry relative="1" as="geometry">
            <mxPoint x="260" y="630" as="sourcePoint" />
            <Array as="points">
              <mxPoint x="355" y="630" />
            </Array>
            <mxPoint x="500" y="630" as="targetPoint" />
          </mxGeometry>
        </mxCell>
        <mxCell id="7EY8_wTJ_FT-RABBMJMo-4" value="create notification&lt;br style=&quot;border-color: var(--border-color);&quot;&gt;a two hours&amp;nbsp;before" style="html=1;verticalAlign=bottom;endArrow=block;edgeStyle=elbowEdgeStyle;elbow=vertical;curved=0;rounded=0;" edge="1" parent="1" target="7EY8_wTJ_FT-RABBMJMo-9">
          <mxGeometry relative="1" as="geometry">
            <mxPoint x="255" y="670" as="sourcePoint" />
            <Array as="points">
              <mxPoint x="355" y="670" />
            </Array>
            <mxPoint x="535" y="670" as="targetPoint" />
          </mxGeometry>
        </mxCell>
        <mxCell id="7EY8_wTJ_FT-RABBMJMo-5" style="edgeStyle=orthogonalEdgeStyle;rounded=0;orthogonalLoop=1;jettySize=auto;html=1;exitX=0.5;exitY=0;exitDx=0;exitDy=0;entryX=0;entryY=0.5;entryDx=0;entryDy=0;" edge="1" parent="1" source="NtnkKfjpCND8VINaP71_-1" target="NtnkKfjpCND8VINaP71_-30">
          <mxGeometry relative="1" as="geometry" />
        </mxCell>
        <mxCell id="7EY8_wTJ_FT-RABBMJMo-7" value="apointment" style="html=1;verticalAlign=bottom;endArrow=open;dashed=1;endSize=8;edgeStyle=elbowEdgeStyle;elbow=vertical;curved=0;rounded=0;" edge="1" parent="1">
          <mxGeometry relative="1" as="geometry">
            <mxPoint x="65.60000000000002" y="710" as="targetPoint" />
            <mxPoint x="245" y="710" as="sourcePoint" />
          </mxGeometry>
        </mxCell>
      </root>
    </mxGraphModel>
  </diagram>
</mxfile>
